<svg height="145pt" viewBox="0.00 0.00 321.99 144.99" width="322pt" xmlns="http://www.w3.org/2000/svg" xmlns:xlink="http://www.w3.org/1999/xlink">
<g class="graph" id="graph0" transform="scale(1 1) rotate(0) translate(4 140.99)">
<title>%3</title>
<polygon fill="white" points="-4,4 -4,-140.99 317.99,-140.99 317.99,4 -4,4" stroke="transparent"/>
<!-- &#45;365742023071253355 -->
<g class="node" id="node1">
<title>-365742023071253355</title>
<ellipse cx="32.5" cy="-32.5" fill="none" rx="32.49" ry="32.49" stroke="black"/>
<text font-family="Times,serif" font-size="14.00" text-anchor="middle" x="32.5" y="-28.8">ones</text>
</g>
<!-- 4197427476219024987 -->
<g class="node" id="node2">
<title>4197427476219024987</title>
<polygon fill="none" points="59.5,-136.99 5.5,-136.99 5.5,-100.99 59.5,-100.99 59.5,-136.99" stroke="black"/>
<text font-family="Times,serif" font-size="14.00" text-anchor="middle" x="32.5" y="-115.29">(0, 0)</text>
</g>
<!-- &#45;365742023071253355&#45;&gt;4197427476219024987 -->
<g class="edge" id="edge1">
<title>-365742023071253355-&gt;4197427476219024987</title>
<path d="M32.5,-65.44C32.5,-73.67 32.5,-82.45 32.5,-90.43" fill="none" stroke="black"/>
<polygon fill="black" points="29,-90.69 32.5,-100.69 36,-90.69 29,-90.69" stroke="black"/>
</g>
<!-- &#45;5581135439110595730 -->
<g class="node" id="node3">
<title>-5581135439110595730</title>
<ellipse cx="115.5" cy="-32.5" fill="none" rx="32.49" ry="32.49" stroke="black"/>
<text font-family="Times,serif" font-size="14.00" text-anchor="middle" x="115.5" y="-28.8">ones</text>
</g>
<!-- 4197427476220190036 -->
<g class="node" id="node4">
<title>4197427476220190036</title>
<polygon fill="none" points="142.5,-136.99 88.5,-136.99 88.5,-100.99 142.5,-100.99 142.5,-136.99" stroke="black"/>
<text font-family="Times,serif" font-size="14.00" text-anchor="middle" x="115.5" y="-115.29">(0, 1)</text>
</g>
<!-- &#45;5581135439110595730&#45;&gt;4197427476220190036 -->
<g class="edge" id="edge2">
<title>-5581135439110595730-&gt;4197427476220190036</title>
<path d="M115.5,-65.44C115.5,-73.67 115.5,-82.45 115.5,-90.43" fill="none" stroke="black"/>
<polygon fill="black" points="112,-90.69 115.5,-100.69 119,-90.69 112,-90.69" stroke="black"/>
</g>
<!-- &#45;4546809350937837505 -->
<g class="node" id="node5">
<title>-4546809350937837505</title>
<ellipse cx="198.5" cy="-32.5" fill="none" rx="32.49" ry="32.49" stroke="black"/>
<text font-family="Times,serif" font-size="14.00" text-anchor="middle" x="198.5" y="-28.8">ones</text>
</g>
<!-- 4197427476221355085 -->
<g class="node" id="node6">
<title>4197427476221355085</title>
<polygon fill="none" points="225.5,-136.99 171.5,-136.99 171.5,-100.99 225.5,-100.99 225.5,-136.99" stroke="black"/>
<text font-family="Times,serif" font-size="14.00" text-anchor="middle" x="198.5" y="-115.29">(0, 2)</text>
</g>
<!-- &#45;4546809350937837505&#45;&gt;4197427476221355085 -->
<g class="edge" id="edge3">
<title>-4546809350937837505-&gt;4197427476221355085</title>
<path d="M198.5,-65.44C198.5,-73.67 198.5,-82.45 198.5,-90.43" fill="none" stroke="black"/>
<polygon fill="black" points="195,-90.69 198.5,-100.69 202,-90.69 195,-90.69" stroke="black"/>
</g>
<!-- 1679743085291019720 -->
<g class="node" id="node7">
<title>1679743085291019720</title>
<ellipse cx="281.5" cy="-32.5" fill="none" rx="32.49" ry="32.49" stroke="black"/>
<text font-family="Times,serif" font-size="14.00" text-anchor="middle" x="281.5" y="-28.8">ones</text>
</g>
<!-- 4197427476222520134 -->
<g class="node" id="node8">
<title>4197427476222520134</title>
<polygon fill="none" points="308.5,-136.99 254.5,-136.99 254.5,-100.99 308.5,-100.99 308.5,-136.99" stroke="black"/>
<text font-family="Times,serif" font-size="14.00" text-anchor="middle" x="281.5" y="-115.29">(0, 3)</text>
</g>
<!-- 1679743085291019720&#45;&gt;4197427476222520134 -->
<g class="edge" id="edge4">
<title>1679743085291019720-&gt;4197427476222520134</title>
<path d="M281.5,-65.44C281.5,-73.67 281.5,-82.45 281.5,-90.43" fill="none" stroke="black"/>
<polygon fill="black" points="278,-90.69 281.5,-100.69 285,-90.69 278,-90.69" stroke="black"/>
</g>
</g>
</svg>