<svg height="130pt" viewBox="0.00 0.00 334.49 130.00" width="334pt" xmlns="http://www.w3.org/2000/svg" xmlns:xlink="http://www.w3.org/1999/xlink">
<g class="graph" id="graph0" transform="scale(1 1) rotate(0) translate(4 126)">
<title>%3</title>
<polygon fill="white" points="-4,4 -4,-126 330.49,-126 330.49,4 -4,4" stroke="transparent"/>
<!-- &#45;7080810007040492603 -->
<g class="node" id="node1">
<title>-7080810007040492603</title>
<ellipse cx="208.54" cy="-59.7" fill="none" rx="27.9" ry="27.9" stroke="black"/>
<text font-family="Times,serif" font-size="14.00" text-anchor="middle" x="208.54" y="-56">add</text>
</g>
<!-- &#45;4801519903595810293 -->
<g class="node" id="node2">
<title>-4801519903595810293</title>
<polygon fill="none" points="326.49,-77.7 272.49,-77.7 272.49,-41.7 326.49,-41.7 326.49,-77.7" stroke="black"/>
</g>
<!-- &#45;7080810007040492603&#45;&gt;&#45;4801519903595810293 -->
<g class="edge" id="edge1">
<title>-7080810007040492603-&gt;-4801519903595810293</title>
<path d="M236.71,-59.7C244.78,-59.7 253.74,-59.7 262.28,-59.7" fill="none" stroke="black"/>
<polygon fill="black" points="262.4,-63.2 272.4,-59.7 262.4,-56.2 262.4,-63.2" stroke="black"/>
</g>
<!-- 4157080147521137108 -->
<g class="node" id="node3">
<title>4157080147521137108</title>
<polygon fill="none" points="144.6,-108.7 90.6,-108.7 90.6,-72.7 144.6,-72.7 144.6,-108.7" stroke="black"/>
</g>
<!-- 4157080147521137108&#45;&gt;&#45;7080810007040492603 -->
<g class="edge" id="edge2">
<title>4157080147521137108-&gt;-7080810007040492603</title>
<path d="M144.8,-81.56C153.38,-78.57 163.06,-75.2 172.2,-72.02" fill="none" stroke="black"/>
<polygon fill="black" points="173.54,-75.26 181.83,-68.66 171.24,-68.65 173.54,-75.26" stroke="black"/>
</g>
<!-- &#45;2758191277103215987 -->
<g class="node" id="node4">
<title>-2758191277103215987</title>
<polygon fill="none" points="144.6,-50.7 90.6,-50.7 90.6,-14.7 144.6,-14.7 144.6,-50.7" stroke="black"/>
</g>
<!-- &#45;2758191277103215987&#45;&gt;&#45;7080810007040492603 -->
<g class="edge" id="edge3">
<title>-2758191277103215987-&gt;-7080810007040492603</title>
<path d="M144.8,-40.65C153.22,-43.21 162.69,-46.08 171.67,-48.81" fill="none" stroke="black"/>
<polygon fill="black" points="170.94,-52.24 181.52,-51.8 172.97,-45.55 170.94,-52.24" stroke="black"/>
</g>
<!-- &#45;4644552389209002241 -->
<g class="node" id="node5">
<title>-4644552389209002241</title>
<ellipse cx="27.3" cy="-24.7" fill="none" rx="24.9" ry="24.9" stroke="black"/>
<text font-family="Times,serif" font-size="14.00" text-anchor="middle" x="27.3" y="-21">inc</text>
</g>
<!-- &#45;4644552389209002241&#45;&gt;&#45;2758191277103215987 -->
<g class="edge" id="edge4">
<title>-4644552389209002241-&gt;-2758191277103215987</title>
<path d="M51.96,-26.84C60.66,-27.63 70.73,-28.54 80.29,-29.41" fill="none" stroke="black"/>
<polygon fill="black" points="80.1,-32.91 90.38,-30.32 80.74,-25.93 80.1,-32.91" stroke="black"/>
</g>
<!-- 4482577265441252334 -->
<g class="node" id="node6">
<title>4482577265441252334</title>
<ellipse cx="27.3" cy="-94.7" fill="none" rx="27.1" ry="27.1" stroke="black"/>
<text font-family="Times,serif" font-size="14.00" text-anchor="middle" x="27.3" y="-91">dec</text>
</g>
<!-- 4482577265441252334&#45;&gt;4157080147521137108 -->
<g class="edge" id="edge5">
<title>4482577265441252334-&gt;4157080147521137108</title>
<path d="M54.79,-93.5C62.81,-93.13 71.75,-92.73 80.3,-92.34" fill="none" stroke="black"/>
<polygon fill="black" points="80.59,-95.83 90.43,-91.88 80.28,-88.84 80.59,-95.83" stroke="black"/>
</g>
</g>
</svg>